<?xml version="1.0" encoding="UTF-8"?>
<svg width="16px" height="16px" viewBox="0 0 16 16" version="1.1" xmlns="http://www.w3.org/2000/svg" xmlns:xlink="http://www.w3.org/1999/xlink">
    <!-- Generator: Sketch 45.2 (43514) - http://www.bohemiancoding.com/sketch -->
    <title>Shape</title>
    <desc>Created with Sketch.</desc>
    <defs></defs>
    <g id="Symbols" stroke="none" stroke-width="1" fill="none" fill-rule="evenodd">
        <g id="Button-/-Dołącz-/-Opuść" transform="translate(-14.000000, -14.000000)" fill-rule="nonzero" fill="#FFFFFF">
            <g id="Dołącz">
                <path d="M31.0869565,22.9565217 L23.9130435,22.9565217 L23.9130435,30.1304348 L23.9130435,30.1304348 C23.9130435,30.9228433 23.2706694,31.5652174 22.4782609,31.5652174 L22.4782609,31.5652174 L22.4782609,31.5652174 C21.6858523,31.5652174 21.0434783,30.9228433 21.0434783,30.1304348 L21.0434783,22.9565217 L13.8695652,22.9565217 L13.8695652,22.9565217 C13.0771567,22.9565217 12.4347826,22.3141477 12.4347826,21.5217391 L12.4347826,21.5217391 L12.4347826,21.5217391 C12.4347826,20.7293306 13.0771567,20.0869565 13.8695652,20.0869565 L21.0434783,20.0869565 L21.0434783,12.9130435 L21.0434783,12.9130435 C21.0434783,12.1206349 21.6858523,11.4782609 22.4782609,11.4782609 L22.4782609,11.4782609 L22.4782609,11.4782609 C23.2706694,11.4782609 23.9130435,12.1206349 23.9130435,12.9130435 L23.9130435,20.0869565 L31.0869565,20.0869565 L31.0869565,20.0869565 C31.8793651,20.0869565 32.5217391,20.7293306 32.5217391,21.5217391 L32.5217391,21.5217391 L32.5217391,21.5217391 C32.5217391,22.3141477 31.8793651,22.9565217 31.0869565,22.9565217 Z" id="Shape" transform="translate(22.478261, 21.521739) rotate(-45.000000) translate(-22.478261, -21.521739) "></path>
            </g>
        </g>
    </g>
</svg>