<?xml version="1.0" encoding="UTF-8"?>
<svg width="21px" height="21px" viewBox="0 0 21 21" version="1.1" xmlns="http://www.w3.org/2000/svg" xmlns:xlink="http://www.w3.org/1999/xlink">
    <!-- Generator: Sketch 45.2 (43514) - http://www.bohemiancoding.com/sketch -->
    <title>Shape</title>
    <desc>Created with Sketch.</desc>
    <defs></defs>
    <g id="Symbols" stroke="none" stroke-width="1" fill="none" fill-rule="evenodd">
        <g id="Button-/-Dołącz-/-Dołącz" transform="translate(-12.000000, -12.000000)" fill-rule="nonzero" fill="#FFFFFF">
            <g id="Dołącz">
                <path d="M31.5,24 L24,24 L24,31.5 L24,31.5 C24,32.3284271 23.3284271,33 22.5,33 L22.5,33 L22.5,33 C21.6715729,33 21,32.3284271 21,31.5 L21,24 L13.5,24 L13.5,24 C12.6715729,24 12,23.3284271 12,22.5 L12,22.5 L12,22.5 C12,21.6715729 12.6715729,21 13.5,21 L21,21 L21,13.5 L21,13.5 C21,12.6715729 21.6715729,12 22.5,12 L22.5,12 L22.5,12 C23.3284271,12 24,12.6715729 24,13.5 L24,21 L31.5,21 L31.5,21 C32.3284271,21 33,21.6715729 33,22.5 L33,22.5 L33,22.5 C33,23.3284271 32.3284271,24 31.5,24 Z" id="Shape"></path>
            </g>
        </g>
    </g>
</svg>