<?xml version="1.0" encoding="UTF-8"?>
<svg width="14px" height="14px" viewBox="0 0 14 14" version="1.1" xmlns="http://www.w3.org/2000/svg" xmlns:xlink="http://www.w3.org/1999/xlink">
    <!-- Generator: Sketch 45.2 (43514) - http://www.bohemiancoding.com/sketch -->
    <title>Shape</title>
    <desc>Created with Sketch.</desc>
    <defs></defs>
    <g id="Page-1" stroke="none" stroke-width="1" fill="none" fill-rule="evenodd">
        <g id="Grupa---Mobile---Menu" transform="translate(-280.000000, -24.000000)" fill-rule="nonzero" fill="#00C2F0">
            <g id="Group-2" transform="translate(250.000000, 11.000000)">
                <path d="M44.1086957,20.9130435 L37.9130435,20.9130435 L37.9130435,27.1086957 L37.9130435,27.1086957 C37.9130435,27.7930485 37.3582659,28.3478261 36.673913,28.3478261 L36.673913,28.3478261 L36.673913,28.3478261 C35.9895602,28.3478261 35.4347826,27.7930485 35.4347826,27.1086957 L35.4347826,20.9130435 L29.2391304,20.9130435 L29.2391304,20.9130435 C28.5547776,20.9130435 28,20.3582659 28,19.673913 L28,19.673913 L28,19.673913 C28,18.9895602 28.5547776,18.4347826 29.2391304,18.4347826 L35.4347826,18.4347826 L35.4347826,12.2391304 L35.4347826,12.2391304 C35.4347826,11.5547776 35.9895602,11 36.673913,11 L36.673913,11 L36.673913,11 C37.3582659,11 37.9130435,11.5547776 37.9130435,12.2391304 L37.9130435,18.4347826 L44.1086957,18.4347826 L44.1086957,18.4347826 C44.7930485,18.4347826 45.3478261,18.9895602 45.3478261,19.673913 L45.3478261,19.673913 L45.3478261,19.673913 C45.3478261,20.3582659 44.7930485,20.9130435 44.1086957,20.9130435 Z" id="Shape" transform="translate(36.673913, 19.673913) rotate(-45.000000) translate(-36.673913, -19.673913) "></path>
            </g>
        </g>
    </g>
</svg>