<?xml version="1.0" encoding="UTF-8"?>
<svg width="36px" height="24px" viewBox="0 0 36 24" version="1.1" xmlns="http://www.w3.org/2000/svg" xmlns:xlink="http://www.w3.org/1999/xlink">
    <!-- Generator: Sketch 45.2 (43514) - http://www.bohemiancoding.com/sketch -->
    <title>Obserwuj</title>
    <desc>Created with Sketch.</desc>
    <defs></defs>
    <g id="Symbols" stroke="none" stroke-width="1" fill="none" fill-rule="evenodd">
        <g id="Button-/-Obserwuj-/-Hover" transform="translate(-4.000000, -10.000000)" fill="#E8126B">
            <g id="Obserwuj-/-Normal">
                <g id="Obserwuj" transform="translate(4.782609, 10.521739)">
                    <path d="M17.2173913,3.06067826 C9.17208696,3.06067826 3.02452174,10.2039826 2.8686087,11.6894609 C3.02356522,13.1347652 9.17208696,20.2780696 17.2173913,20.2780696 C25.1928696,20.2780696 31.1873913,13.1156348 31.5566087,11.6693739 C31.1873913,10.223113 25.191913,3.06067826 17.2173913,3.06067826 M17.2173913,23.1476348 C8.3246087,23.1476348 0,15.2553739 0,11.6693739 C0,8.08337391 8.3246087,0.191113043 17.2173913,0.191113043 C26.2488696,0.191113043 34.4347826,8.45450435 34.4347826,11.6693739 C34.4347826,14.8842435 26.2488696,23.1476348 17.2173913,23.1476348" id="Fill-2"></path>
                    <path d="M17.2173913,7.84328696 C15.1044348,7.84328696 13.3913043,9.55641739 13.3913043,11.6693739 C13.3913043,13.7823304 15.1044348,15.4954609 17.2173913,15.4954609 C19.3303478,15.4954609 21.0434783,13.7823304 21.0434783,11.6693739 L18.59,11.6693739 C17.8314783,11.6693739 17.2173913,11.055287 17.2173913,10.2977217 L17.2173913,7.84328696 Z" id="Fill-4"></path>
                </g>
            </g>
        </g>
    </g>
</svg>